<mxfile host="app.diagrams.net" modified="2022-05-16T01:54:07.847Z" agent="5.0 (X11; Linux x86_64) AppleWebKit/537.36 (KHTML, like Gecko) Chrome/99.0.4844.84 Safari/537.36" etag="Ez6Woe63kdMxZU4bj2rh" version="17.5.0" type="github">
  <diagram id="1Y5T5DOfBjxiaWSJh590" name="Page-1">
    <mxGraphModel dx="1108" dy="434" grid="1" gridSize="10" guides="1" tooltips="1" connect="1" arrows="1" fold="1" page="1" pageScale="1" pageWidth="1920" pageHeight="1200" math="0" shadow="0">
      <root>
        <mxCell id="0" />
        <mxCell id="1" parent="0" />
        <mxCell id="gT9NUVOMYnylzk9UIYkg-6" style="edgeStyle=orthogonalEdgeStyle;rounded=0;orthogonalLoop=1;jettySize=auto;html=1;" parent="1" source="gT9NUVOMYnylzk9UIYkg-1" target="gT9NUVOMYnylzk9UIYkg-4" edge="1">
          <mxGeometry relative="1" as="geometry" />
        </mxCell>
        <mxCell id="gT9NUVOMYnylzk9UIYkg-7" style="edgeStyle=orthogonalEdgeStyle;rounded=0;orthogonalLoop=1;jettySize=auto;html=1;entryX=0;entryY=0.5;entryDx=0;entryDy=0;" parent="1" source="gT9NUVOMYnylzk9UIYkg-1" target="gT9NUVOMYnylzk9UIYkg-3" edge="1">
          <mxGeometry relative="1" as="geometry" />
        </mxCell>
        <mxCell id="gT9NUVOMYnylzk9UIYkg-1" value="Adserver" style="rounded=0;whiteSpace=wrap;html=1;" parent="1" vertex="1">
          <mxGeometry x="290" y="200" width="120" height="60" as="geometry" />
        </mxCell>
        <mxCell id="gT9NUVOMYnylzk9UIYkg-8" style="edgeStyle=orthogonalEdgeStyle;rounded=0;orthogonalLoop=1;jettySize=auto;html=1;entryX=1;entryY=0.25;entryDx=0;entryDy=0;" parent="1" source="gT9NUVOMYnylzk9UIYkg-3" target="gT9NUVOMYnylzk9UIYkg-4" edge="1">
          <mxGeometry relative="1" as="geometry" />
        </mxCell>
        <mxCell id="gT9NUVOMYnylzk9UIYkg-3" value="Contextual Api" style="rounded=0;whiteSpace=wrap;html=1;" parent="1" vertex="1">
          <mxGeometry x="540" y="290" width="120" height="60" as="geometry" />
        </mxCell>
        <mxCell id="gT9NUVOMYnylzk9UIYkg-5" style="edgeStyle=orthogonalEdgeStyle;rounded=0;orthogonalLoop=1;jettySize=auto;html=1;" parent="1" source="gT9NUVOMYnylzk9UIYkg-4" target="gT9NUVOMYnylzk9UIYkg-1" edge="1">
          <mxGeometry relative="1" as="geometry" />
        </mxCell>
        <mxCell id="gT9NUVOMYnylzk9UIYkg-4" value="Memcache cluster" style="rounded=0;whiteSpace=wrap;html=1;" parent="1" vertex="1">
          <mxGeometry x="460" y="100" width="120" height="60" as="geometry" />
        </mxCell>
        <mxCell id="gT9NUVOMYnylzk9UIYkg-11" value="" style="endArrow=none;html=1;rounded=0;" parent="1" edge="1">
          <mxGeometry width="50" height="50" relative="1" as="geometry">
            <mxPoint x="730" y="430" as="sourcePoint" />
            <mxPoint x="730" y="180" as="targetPoint" />
          </mxGeometry>
        </mxCell>
        <mxCell id="gT9NUVOMYnylzk9UIYkg-12" value="" style="endArrow=classic;html=1;rounded=0;exitX=1;exitY=0.25;exitDx=0;exitDy=0;" parent="1" source="gT9NUVOMYnylzk9UIYkg-3" edge="1">
          <mxGeometry width="50" height="50" relative="1" as="geometry">
            <mxPoint x="760" y="300" as="sourcePoint" />
            <mxPoint x="730" y="280" as="targetPoint" />
          </mxGeometry>
        </mxCell>
        <mxCell id="gT9NUVOMYnylzk9UIYkg-13" value="" style="endArrow=classic;html=1;rounded=0;exitX=1;exitY=0.5;exitDx=0;exitDy=0;" parent="1" source="gT9NUVOMYnylzk9UIYkg-3" edge="1">
          <mxGeometry width="50" height="50" relative="1" as="geometry">
            <mxPoint x="760" y="300" as="sourcePoint" />
            <mxPoint x="730" y="320" as="targetPoint" />
          </mxGeometry>
        </mxCell>
        <mxCell id="gT9NUVOMYnylzk9UIYkg-14" value="" style="endArrow=classic;html=1;rounded=0;exitX=1;exitY=0.75;exitDx=0;exitDy=0;" parent="1" source="gT9NUVOMYnylzk9UIYkg-3" edge="1">
          <mxGeometry width="50" height="50" relative="1" as="geometry">
            <mxPoint x="760" y="300" as="sourcePoint" />
            <mxPoint x="730" y="350" as="targetPoint" />
          </mxGeometry>
        </mxCell>
        <mxCell id="gT9NUVOMYnylzk9UIYkg-15" value="V1" style="text;html=1;align=center;verticalAlign=middle;resizable=0;points=[];autosize=1;strokeColor=none;fillColor=none;" parent="1" vertex="1">
          <mxGeometry x="690" y="270" width="30" height="20" as="geometry" />
        </mxCell>
        <mxCell id="gT9NUVOMYnylzk9UIYkg-16" value="V2" style="text;html=1;align=center;verticalAlign=middle;resizable=0;points=[];autosize=1;strokeColor=none;fillColor=none;" parent="1" vertex="1">
          <mxGeometry x="685" y="300" width="30" height="20" as="geometry" />
        </mxCell>
        <mxCell id="gT9NUVOMYnylzk9UIYkg-17" value="V3" style="text;html=1;align=center;verticalAlign=middle;resizable=0;points=[];autosize=1;strokeColor=none;fillColor=none;" parent="1" vertex="1">
          <mxGeometry x="700" y="330" width="30" height="20" as="geometry" />
        </mxCell>
        <mxCell id="gT9NUVOMYnylzk9UIYkg-22" style="edgeStyle=orthogonalEdgeStyle;rounded=0;orthogonalLoop=1;jettySize=auto;html=1;entryX=0;entryY=0.5;entryDx=0;entryDy=0;" parent="1" source="gT9NUVOMYnylzk9UIYkg-18" target="gT9NUVOMYnylzk9UIYkg-1" edge="1">
          <mxGeometry relative="1" as="geometry" />
        </mxCell>
        <mxCell id="gT9NUVOMYnylzk9UIYkg-18" value="ndtv.com" style="rounded=0;whiteSpace=wrap;html=1;" parent="1" vertex="1">
          <mxGeometry x="110" y="50" width="120" height="60" as="geometry" />
        </mxCell>
        <mxCell id="gT9NUVOMYnylzk9UIYkg-20" style="edgeStyle=orthogonalEdgeStyle;rounded=0;orthogonalLoop=1;jettySize=auto;html=1;entryX=0;entryY=0.25;entryDx=0;entryDy=0;" parent="1" source="gT9NUVOMYnylzk9UIYkg-19" target="gT9NUVOMYnylzk9UIYkg-18" edge="1">
          <mxGeometry relative="1" as="geometry">
            <Array as="points">
              <mxPoint x="20" y="250" />
              <mxPoint x="20" y="65" />
            </Array>
          </mxGeometry>
        </mxCell>
        <mxCell id="gT9NUVOMYnylzk9UIYkg-19" value="Actor" style="shape=umlActor;verticalLabelPosition=bottom;verticalAlign=top;html=1;outlineConnect=0;" parent="1" vertex="1">
          <mxGeometry x="70" y="220" width="30" height="60" as="geometry" />
        </mxCell>
        <mxCell id="OOc_maei3ik72JGBLW56-1" value="ndtv.com/sports" style="text;html=1;align=center;verticalAlign=middle;resizable=0;points=[];autosize=1;strokeColor=none;fillColor=none;" vertex="1" parent="1">
          <mxGeometry x="120" y="30" width="100" height="20" as="geometry" />
        </mxCell>
        <mxCell id="OOc_maei3ik72JGBLW56-2" value="Wc 2022 india squad" style="text;html=1;align=center;verticalAlign=middle;resizable=0;points=[];autosize=1;strokeColor=none;fillColor=none;" vertex="1" parent="1">
          <mxGeometry x="100" y="110" width="130" height="20" as="geometry" />
        </mxCell>
        <mxCell id="OOc_maei3ik72JGBLW56-3" value="hash(url) = key" style="text;html=1;align=center;verticalAlign=middle;resizable=0;points=[];autosize=1;strokeColor=none;fillColor=none;" vertex="1" parent="1">
          <mxGeometry x="300" y="270" width="100" height="20" as="geometry" />
        </mxCell>
        <mxCell id="OOc_maei3ik72JGBLW56-4" value="sport" style="text;html=1;align=center;verticalAlign=middle;resizable=0;points=[];autosize=1;strokeColor=none;fillColor=none;" vertex="1" parent="1">
          <mxGeometry x="740" y="280" width="40" height="20" as="geometry" />
        </mxCell>
        <mxCell id="OOc_maei3ik72JGBLW56-5" value="world cup" style="text;html=1;align=center;verticalAlign=middle;resizable=0;points=[];autosize=1;strokeColor=none;fillColor=none;" vertex="1" parent="1">
          <mxGeometry x="740" y="310" width="70" height="20" as="geometry" />
        </mxCell>
        <mxCell id="OOc_maei3ik72JGBLW56-6" value="cricket" style="text;html=1;align=center;verticalAlign=middle;resizable=0;points=[];autosize=1;strokeColor=none;fillColor=none;" vertex="1" parent="1">
          <mxGeometry x="740" y="340" width="50" height="20" as="geometry" />
        </mxCell>
      </root>
    </mxGraphModel>
  </diagram>
</mxfile>
